<svg id="Layer_1" data-name="Layer 1" xmlns="http://www.w3.org/2000/svg" viewBox="0 0 146 146"><defs><style>.cls-1{fill:#d3f4d9;}</style></defs><path class="cls-1" d="M15.83,43.17A24.34,24.34,0,1,1,40.17,18.83a24.33,24.33,0,1,0,48.66,0,24.34,24.34,0,1,1,24.34,24.34,73,73,0,0,0-73,73A24.34,24.34,0,1,1,15.83,91.83a24.33,24.33,0,0,0,0-48.66Z" transform="translate(8.5 5.5)"/><path class="cls-1" d="M58.42,101A39.54,39.54,0,1,1,98,140.5,39.53,39.53,0,0,1,58.42,101Z" transform="translate(8.5 5.5)"/></svg>