<svg id="Layer_1" data-name="Layer 1" xmlns="http://www.w3.org/2000/svg" viewBox="0 0 172 169"><defs><style>.cls-1{fill:#c7deff;}</style></defs><path class="cls-1" d="M167.3,129.83a28.67,28.67,0,0,1-57.34,0c0-15.55,12.84-28.16,28.67-28.16S167.3,114.28,167.3,129.83Z" transform="translate(4.71 11)"/><path class="cls-1" d="M131.46,62.94a25.09,25.09,0,1,1-25.08-24.65A24.86,24.86,0,0,1,131.46,62.94Z" transform="translate(4.71 11)"/><path class="cls-1" d="M81.29,115.75c0,23.33-19.25,42.25-43,42.25s-43-18.92-43-42.25,19.26-42.25,43-42.25S81.29,92.41,81.29,115.75Z" transform="translate(4.71 11)"/><path class="cls-1" d="M67,24.21c0,19.44-16,35.21-35.83,35.21S-4.71,43.65-4.71,24.21,11.34-11,31.13-11,67,4.76,67,24.21Z" transform="translate(4.71 11)"/><path class="cls-1" d="M167.3,10.12a21.51,21.51,0,0,1-43,0,21.51,21.51,0,0,1,43,0Z" transform="translate(4.71 11)"/><path class="cls-1" d="M160.13,80.54a7.17,7.17,0,1,1-7.17-7A7.1,7.1,0,0,1,160.13,80.54Z" transform="translate(4.71 11)"/><path class="cls-1" d="M106.38,13.65a10.75,10.75,0,0,1-21.5,0,10.75,10.75,0,0,1,21.5,0Z" transform="translate(4.71 11)"/></svg>