<svg id="Layer_1" data-name="Layer 1" xmlns="http://www.w3.org/2000/svg" viewBox="0 0 439 430"><defs><style>.cls-1{fill:#b8d0f2;}</style></defs><path class="cls-1" d="M1063.12,788.87c0,39.57-32.76,71.66-73.17,71.66s-73.16-32.09-73.16-71.66S949.54,717.2,990,717.2,1063.12,749.29,1063.12,788.87Z" transform="translate(-624.12 -430.53)"/><path class="cls-1" d="M971.66,618.66c0,34.63-28.66,62.7-64,62.7s-64-28.07-64-62.7,28.66-62.71,64-62.71S971.66,584,971.66,618.66Z" transform="translate(-624.12 -430.53)"/><path class="cls-1" d="M843.62,753c0,59.37-49.14,107.5-109.75,107.5S624.12,812.4,624.12,753s49.14-107.5,109.75-107.5S843.62,693.66,843.62,753Z" transform="translate(-624.12 -430.53)"/><path class="cls-1" d="M807,520.12c0,49.47-40.95,89.58-91.46,89.58s-91.46-40.11-91.46-89.58,41-89.59,91.46-89.59S807,470.64,807,520.12Z" transform="translate(-624.12 -430.53)"/><path class="cls-1" d="M1044.82,663.44a18.29,18.29,0,1,1-18.29-17.91A18.11,18.11,0,0,1,1044.82,663.44Z" transform="translate(-624.12 -430.53)"/></svg>