<svg id="Layer_1" data-name="Layer 1" xmlns="http://www.w3.org/2000/svg" viewBox="0 0 200 200"><defs><style>.cls-1{fill:#dd3e46;}.cls-2{fill:#cfdfe8;}.cls-3{fill:#fff;}.cls-4{fill:#7d8d9c;}.cls-5{fill:#35495e;}</style></defs><path class="cls-1" d="M189.89,44.2v4.67H10.13V46.32a10,10,0,0,1,.19-2.26c.73-3.08,3-4.55,7-4.55q82.67,0,165.32,0C186.21,39.46,188.67,40.73,189.89,44.2Z"/><path class="cls-2" d="M10.13,48.87q0,52.42,0,104.84c0,4.54,2.25,6.8,6.81,6.8q83.1,0,166.19,0c3.47,0,5.63-1.53,6.78-4.69v-107ZM100.49,100v33c0,5.23-2.11,7.34-7.35,7.34H34.33c-5.23,0-7.36-2.13-7.36-7.34V66.84c0-5,2.2-7.15,7.18-7.15H93.3c5,0,7.18,2.16,7.19,7.15Zm70.71,27.17c-.84,2.46-3,3.94-6,4-3.56,0-7.13,0-10.69,0q-15.18,0-30.34,0c-3.91,0-6.56-2.31-6.64-5.72s2.46-6.09,6.21-6.11c7,0,13.91,0,20.87,0s13.79,0,20.69,0C169.72,119.38,172.57,123.23,171.2,127.19Zm0-25.26c-.85,2.52-3.07,4-6.16,4H124a6.19,6.19,0,0,1-5.66-2.88c-2.47-4,.41-8.93,5.35-9,6.49-.08,13,0,19.46,0h7.75c4.79,0,9.57,0,14.35,0C169.72,94.14,172.55,98,171.21,101.93ZM165,80.7H144.51c-7,0-14,0-21,0a5.88,5.88,0,0,1-5.88-4.8A5.78,5.78,0,0,1,121,69.44a8,8,0,0,1,2.9-.56q20.6-.06,41.21,0c3.79,0,6.47,2.57,6.42,6S168.83,80.69,165,80.7Z"/><path class="cls-3" d="M100.48,66.83q0,16.59,0,33.18v33c0,5.23-2.11,7.34-7.35,7.34H34.32c-5.23,0-7.36-2.13-7.36-7.34V66.83c0-5,2.2-7.15,7.18-7.15H93.3C98.3,59.68,100.47,61.84,100.48,66.83Z"/><path class="cls-3" d="M171.21,101.93c-.85,2.52-3.07,4-6.16,4H124a6.19,6.19,0,0,1-5.66-2.88c-2.47-4,.41-8.93,5.35-9,6.49-.08,13,0,19.46,0h7.75c4.79,0,9.57,0,14.35,0C169.72,94.14,172.55,98,171.21,101.93Z"/><path class="cls-4" d="M171.55,74.84c0,3.41-2.72,5.85-6.52,5.86H144.51c-7,0-14,0-21,0a5.88,5.88,0,0,1-5.88-4.8A5.78,5.78,0,0,1,121,69.44a8,8,0,0,1,2.9-.56q20.6-.06,41.21,0C168.92,68.88,171.6,71.44,171.55,74.84Z"/><path class="cls-3" d="M171.2,127.19c-.84,2.46-3,3.94-6,4-3.56,0-7.13,0-10.69,0q-15.18,0-30.34,0c-3.91,0-6.56-2.31-6.64-5.72s2.46-6.09,6.21-6.11c7,0,13.91,0,20.87,0s13.79,0,20.69,0C169.72,119.38,172.57,123.23,171.2,127.19Z"/><path class="cls-5" d="M89.25,131.87H38.31a76.85,76.85,0,0,1,.06-9.11C39.52,113,47,106.5,56.81,106.45q7,0,13.9,0c10.62.07,18.47,7.91,18.54,18.51C89.27,127.25,89.25,129.53,89.25,131.87Z"/><path class="cls-5" d="M80.11,84.86A16.38,16.38,0,1,1,64.19,68.14,16.38,16.38,0,0,1,80.11,84.86Z"/></svg>