<svg id="Layer_1" data-name="Layer 1" xmlns="http://www.w3.org/2000/svg" xmlns:xlink="http://www.w3.org/1999/xlink" viewBox="0 0 200 200"><defs><style>.cls-1{fill:url(#linear-gradient);}.cls-2{fill:#fff;}</style><linearGradient id="linear-gradient" x1="144.26" y1="57.75" x2="66.68" y2="169.8" gradientUnits="userSpaceOnUse"><stop offset="0" stop-color="#ff5e58"/><stop offset="0.54" stop-color="#ef150d"/><stop offset="0.68" stop-color="#e11209"/><stop offset="0.89" stop-color="#c30d00"/><stop offset="1" stop-color="#ef150d"/></linearGradient></defs><path class="cls-1" d="M100.9,12.32c6.2,41,100.29,123.21,28.91,167.69a56.67,56.67,0,0,1-78.06-18.13c-32.2-51.68,40.65-107.4,47-149.56a1.07,1.07,0,0,1,1.21-.9A1.08,1.08,0,0,1,100.9,12.32Z"/><path class="cls-2" d="M114,52.24c23.94,43.57,47.81,93.67,1.23,125.91a56.4,56.4,0,0,1-7.21,4.22,56.47,56.47,0,0,0,13.72-6.19C172.6,144.5,139.52,93.67,114,52.24Z"/></svg>