<svg id="Layer_1" data-name="Layer 1" xmlns="http://www.w3.org/2000/svg" viewBox="0 0 200 200"><defs><style>.cls-1{fill:#f29c1f;}.cls-2{fill:#f0c419;}.cls-3{fill:#35495e;}.cls-4{fill:#e64c3c;}.cls-5{fill:#c03a2b;}</style></defs><path class="cls-1" d="M36.73,155.91H34.47c.36,6.74-1,13.45,1.91,19.75a21.47,21.47,0,0,0,16.41,12.68,4.59,4.59,0,0,1,.77.31h.15v-34.9a11.23,11.23,0,0,1-5.73,2C44.24,156,40.48,155.87,36.73,155.91Zm-.24-43.65H34.57V131.4c.64,0,1.26,0,1.87,0,3.8,0,7.62-.07,11.42.13a11.25,11.25,0,0,1,5.85,2V110.1a11.66,11.66,0,0,1-6,2C44,112.32,40.24,112.22,36.49,112.26Zm.1-43.65h-2V87.75c3.71,0,7.39,0,11.07,0a13.76,13.76,0,0,1,7,1.55,9.93,9.93,0,0,1,1,.65V66.43a11.72,11.72,0,0,1-6,2.06C44,68.69,40.28,68.58,36.59,68.61Zm-2.08-35c0,3.4,0,6.8,0,10.4.69,0,1.29.09,1.9.1,3.81,0,7.62-.08,11.42.15a11.59,11.59,0,0,1,5.89,2V11.55C42.56,12.93,34.57,21.91,34.51,33.6Z"/><path class="cls-2" d="M173.65,33.83c-.05-10.94-6.69-19.45-17.07-21.9a23.65,23.65,0,0,0-5.31-.55q-47.27-.06-94.54,0a24.85,24.85,0,0,0-3,.19V46.27a12.18,12.18,0,0,1,0,20.16V90a12.3,12.3,0,0,1,5,12.72,12.17,12.17,0,0,1-5,7.43v23.46a12.21,12.21,0,0,1,0,20.19v34.9H154.35c2.75-1,5.73-1.52,8.22-2.94,7.63-4.37,11.09-11.26,11.09-20v-103C173.66,53.11,173.7,43.47,173.65,33.83ZM108.74,55a21,21,0,0,1,20.41,21.44c-.29,11.62-9.87,20.92-21.25,20.62a21,21,0,0,1-20.74-22C87.47,63.82,97.25,54.72,108.74,55Zm32.13,81.7H75.56c0-3.9-.38-7.83.07-11.67,1.48-12.49,11.07-20.85,23.65-20.91q8.91-.06,17.82,0c13.61.09,23.67,10.14,23.77,23.73C140.89,130.79,140.87,133.71,140.87,136.71Z"/><path class="cls-3" d="M140.87,136.71H75.56c0-3.9-.38-7.83.07-11.67,1.48-12.49,11.07-20.85,23.65-20.91q8.91-.06,17.82,0c13.61.09,23.67,10.14,23.77,23.73C140.89,130.79,140.87,133.71,140.87,136.71Z"/><path class="cls-3" d="M129.15,76.45c-.29,11.62-9.87,20.92-21.25,20.62a21,21,0,0,1-20.74-22C87.47,63.82,97.25,54.72,108.74,55A21,21,0,0,1,129.15,76.45Z"/><path class="cls-4" d="M40,49.52c2.25,0,4.5-.08,6.74,0a6.85,6.85,0,0,1,6.76,5.59,6.74,6.74,0,0,1-3.72,7.3,8.77,8.77,0,0,1-3.34.74q-6.48.12-13,0a6.88,6.88,0,0,1-6.83-4.84A6.43,6.43,0,0,1,29.08,51a11.53,11.53,0,0,1,4.67-1.43A53.72,53.72,0,0,1,40,49.51Z"/><path class="cls-4" d="M39.93,150.43c-2.42,0-4.85.16-7.25,0a6.76,6.76,0,0,1-1.9-13.09,8.57,8.57,0,0,1,2.7-.48c4.32-.05,8.64-.07,13,0A6.7,6.7,0,0,1,53,141a6.52,6.52,0,0,1-1.15,7.1,6.93,6.93,0,0,1-5.54,2.37c-2.13,0-4.26,0-6.4,0Z"/><path class="cls-5" d="M39.93,106.81c-2.36,0-4.74.13-7.09,0a6.77,6.77,0,0,1-2.69-12.85,9,9,0,0,1,3.34-.74c4.32-.08,8.64-.07,13,0A6.69,6.69,0,0,1,53,97.38a6.5,6.5,0,0,1-1.16,7.1,6.91,6.91,0,0,1-5.54,2.36c-2.13,0-4.26,0-6.39,0Z"/></svg>