<svg id="Layer_1" data-name="Layer 1" xmlns="http://www.w3.org/2000/svg" xmlns:xlink="http://www.w3.org/1999/xlink" viewBox="0 0 200 200"><defs><style>.cls-1{fill:url(#linear-gradient);}.cls-2{fill:url(#linear-gradient-2);}.cls-3{fill:url(#linear-gradient-3);}.cls-4{fill:url(#linear-gradient-4);}.cls-5{fill:url(#linear-gradient-5);}</style><linearGradient id="linear-gradient" x1="63.39" y1="187.7" x2="134.76" y2="64.09" gradientUnits="userSpaceOnUse"><stop offset="0" stop-color="#b71c1c"/><stop offset="1" stop-color="#dd3636"/></linearGradient><linearGradient id="linear-gradient-2" x1="66.5" y1="180.33" x2="123.2" y2="82.12" xlink:href="#linear-gradient"/><linearGradient id="linear-gradient-3" x1="79.13" y1="113.68" x2="125.4" y2="33.55" xlink:href="#linear-gradient"/><linearGradient id="linear-gradient-4" x1="81.46" y1="73.31" x2="119.52" y2="7.39" xlink:href="#linear-gradient"/><linearGradient id="linear-gradient-5" x1="108.99" y1="165.83" x2="126.92" y2="134.77" xlink:href="#linear-gradient"/></defs><path class="cls-1" d="M115.53,188.8c-22-7.74-35.85-23.6-43.48-45-4.12-11.55-2.81-23,4.47-33.21,7.14-10,17.1-14.28,29.2-11.8,12.26,2.5,20,10.39,23.22,22.41,1,4,.82,8.23,1.13,12.37.44,5.84,3.05,10.4,8.16,13.28,9.07,5.12,20.56-.45,22.37-10.91,1.07-6.23.26-12.47-1.06-18.59-4.09-19-14-34.09-31-43.92-22.48-13-51.32-9.12-70,9.1a64.7,64.7,0,0,0-6.36,85.87c1.19,1.57,2.2,3.16,1.79,5.22a5.33,5.33,0,0,1-4.08,4.47,5.44,5.44,0,0,1-6-2.18A75.71,75.71,0,0,1,65.45,63.64C93.18,47.7,129.22,53.36,151,77.09c14.68,16,21.51,35,21.1,56.65a26.86,26.86,0,0,1-25.27,26c-13.21.83-25.48-9.22-27.42-22.65-.53-3.7-.3-7.5-.73-11.22-1.33-11.61-13.45-19.6-24.14-15.81-7.52,2.66-11.35,8.63-12.91,16.13-1.5,7.14.19,13.92,3.28,20.33A67.1,67.1,0,0,0,111,175.22a24.75,24.75,0,0,0,7.09,2.47,6,6,0,0,1,4.78,4.62,5.46,5.46,0,0,1-3,5.9c-.4.21-.82.4-1.24.59Z"/><path class="cls-2" d="M81.19,188.8a26.75,26.75,0,0,1-4-3c-10.35-11.27-19.07-23.6-24.7-38a52.68,52.68,0,0,1,24.25-65.8c23.87-12.57,53.66-3.64,67.2,20.25a52.79,52.79,0,0,1,7,25.78c.05,3.78-2,6.27-5.3,6.39s-5.69-2.33-5.79-6.15c-.29-12.12-4.75-22.39-13.68-30.59C107,80.1,76.51,85.94,64.56,109.55c-6.23,12.31-6,24.76-.51,37.28,5.3,12,13,22.45,21.86,32.06,2.37,2.56,2.72,5.71.66,7.92a15,15,0,0,1-3,2Z"/><path class="cls-3" d="M100,32.88q48.54,1.48,76.47,41.25a5.49,5.49,0,0,1-1.17,8c-2.63,1.84-6,1.16-8-1.75a83.46,83.46,0,0,0-30.9-27.47C104.12,36.19,64.83,43.54,40,71c-2.74,3-5.11,6.4-7.6,9.66a5.52,5.52,0,0,1-5.93,2.3,4.83,4.83,0,0,1-4-4.23,6.77,6.77,0,0,1,.84-4.24c12.9-19,30.36-31.9,52.52-38.23A88.28,88.28,0,0,1,100,32.88Z"/><path class="cls-4" d="M102.64,11.2c22.42.34,44.43,8.84,63.27,25.54,1.68,1.49,2.65,3.24,2.22,5.5a5.52,5.52,0,0,1-9.13,3.2c-2.66-2.13-5.2-4.42-8-6.41-16.42-11.81-34.78-17.51-55-16.6S58.31,30.59,43,43.59c-.62.52-1.22,1.06-1.84,1.58C38.47,47.48,35.08,47.38,33,45s-1.81-5.69.77-8A98.66,98.66,0,0,1,59.88,19.83C72.6,14.13,85.94,11.26,102.64,11.2Z"/><path class="cls-5" d="M93.87,127.15a20.17,20.17,0,0,1,.38-3.5,5.43,5.43,0,0,1,5.88-3.82,5.6,5.6,0,0,1,4.92,5.78,41.87,41.87,0,0,0,3.59,16.63c4.07,9.23,10.13,16.75,19.07,21.72a23.16,23.16,0,0,0,10.23,2.92c3.4.17,5.78,2.62,5.66,5.72a5.64,5.64,0,0,1-6.23,5.34c-8-.38-15-3.63-21.15-8.55C102.63,158.57,95.13,144.47,93.87,127.15Z"/></svg>