<svg xmlns="http://www.w3.org/2000/svg" xmlns:xlink="http://www.w3.org/1999/xlink" viewBox="0 0 200 200"><defs><style>.cls-1{isolation:isolate;}.cls-2{fill:#388e3c;}.cls-3{fill:#fff;}.cls-4,.cls-5{mix-blend-mode:multiply;}.cls-4{fill:url(#linear-gradient);}.cls-5{fill:url(#linear-gradient-2);}</style><linearGradient id="linear-gradient" x1="117.63" y1="133.56" x2="53.63" y2="115.37" gradientUnits="userSpaceOnUse"><stop offset="0" stop-color="#fff"/><stop offset="1" stop-color="#002f7f"/></linearGradient><linearGradient id="linear-gradient-2" x1="52.62" y1="55.36" x2="131.95" y2="71.03" xlink:href="#linear-gradient"/></defs><g class="cls-1"><g id="Layer_1" data-name="Layer 1"><path class="cls-2" d="M171.85,83.26c0,63.31-71.85,105.33-71.85,105.33a201.81,201.81,0,0,1-45.52-40.42c-14.25-17.46-26.33-39.71-26.33-64.91a71.85,71.85,0,1,1,143.7,0Z"/><circle class="cls-3" cx="100" cy="70.92" r="22.53" transform="translate(8 151.95) rotate(-76.72)"/><path class="cls-4" d="M113.78,88.88l-59.3,59.29A201.81,201.81,0,0,0,100,188.59s67.6-39.54,71.65-99.71Z"/><path class="cls-5" d="M123.58,15.39A71.85,71.85,0,0,0,28.15,83.26a83.15,83.15,0,0,0,3.21,22.6l48.2-46.45Z"/></g></g></svg>