<svg id="Layer_1" data-name="Layer 1" xmlns="http://www.w3.org/2000/svg" viewBox="0 0 200 200"><defs><style>.cls-1{fill:#e5332a;}.cls-2{fill:#ffc71c;}.cls-3{fill:#dca678;}.cls-4{fill:#f8ba8c;}</style></defs><path class="cls-1" d="M137.26,102.81c.92-12.46,2.45-31.86,2.45-31.86C151,45.8,132.9,9.05,117.49,19.53,101-2.49,45.55,22.17,62.25,70.61c0,0,.71,16.26-2.21,31.29-4.18,21.52-11.72,44.76-4.75,50.09,9.8,7.51,82,8.35,86.36,2.74C148.78,145.64,136.33,115.28,137.26,102.81Z"/><path class="cls-2" d="M159.21,168.76a94.8,94.8,0,0,1-118.42-1.9c1.52-7.94,3.63-15.3,6.47-17.64A34,34,0,0,1,52.59,146c8.32-4.33,23.3-10.62,34.28-15.1C89,130,91,129.2,92.8,128.49c4.58-1.84,7.58-3,7.58-3s2.67.92,6.83,2.45c1.79.64,3.87,1.4,6.13,2.24,9.32,3.5,21.73,8.38,30.41,12.72,4.74,2.37,8.35,4.58,9.73,6.32C156,152.41,157.9,160.52,159.21,168.76Z"/><path class="cls-3" d="M115,134.19s-1.8,8.74-14.61,8.74-14.6-8.74-14.6-8.74a19.46,19.46,0,0,0,0-15.39c-3.56-8.3,33.57-10,29.21,0S115,134.19,115,134.19Z"/><path class="cls-4" d="M141.65,78.15c0,6.59-4.67,15.65-7.82,15.65s-5.7-5.35-5.7-11.94a14.15,14.15,0,0,1,5.7-11.93C136.88,67.54,141.65,69.93,141.65,78.15Z"/><path class="cls-4" d="M60,78.15c0,6.59,4.67,15.65,7.82,15.65s5.7-5.35,5.7-11.94a14.15,14.15,0,0,0-5.7-11.93C64.81,67.54,60,69.93,60,78.15Z"/><path class="cls-4" d="M101,25.91c-22.14,0-31.93,15.51-31.93,38.65v29c0,20.15,23.29,37.39,30.64,37.39s33.21-20.16,33.21-39.25V64.56C132.9,41.42,123.12,25.91,101,25.91Z"/><path class="cls-1" d="M132.9,81.07l.93-12c4.83-23.39-10.51-46-32.65-46S61.88,47.72,67.81,71.11l1.24,13.67a16.38,16.38,0,0,0,5-10.08c.57-5,2.48-25,2.48-25L79,61.53l26.7,1.75,4.57-9.37,1.83,9.79,8.49.56L126,47.86s.77,14.24,2.47,25C129.55,79.53,132.9,81.07,132.9,81.07Z"/></svg>