<svg id="Layer_1" data-name="Layer 1" xmlns="http://www.w3.org/2000/svg" viewBox="0 0 200 200"><defs><style>.cls-1{fill:#1565c0;}.cls-2{fill:#0d47a1;}.cls-3{fill:#dca678;}.cls-4{fill:#f8ba8c;}</style></defs><path class="cls-1" d="M162.25,166.29a94.86,94.86,0,0,1-124.5-2c1.48-5.82,3.38-10.69,5.74-12.52,4-3,19.86-9.59,33.83-15,4.61-1.81,9-3.49,12.69-4.87,2.67-1,5-1.87,6.7-2.52l3.56-1.32s1.41.45,3.78,1.24c1.81.61,4.21,1.42,7,2.37,3.58,1.24,7.81,2.73,12.21,4.34,14.21,5.23,30.39,11.79,33.83,15.79C159.24,154.31,160.93,160,162.25,166.29Z"/><path class="cls-2" d="M123.23,138.46l-23,8.76-23-8.76v-11.7a78.53,78.53,0,0,1,23.52-3.69,66.81,66.81,0,0,1,22.39,3.69Z"/><polygon class="cls-3" points="119.78 127.71 100.28 136.47 80.78 127.71 80.78 112.32 119.78 112.32 119.78 127.71"/><path d="M139.6,82.12V61c0-29.66-11.89-49.55-38.76-49.55S62.08,31.3,62.08,61V82.12a113.8,113.8,0,0,0,11.32-11c2.44-2.76-5.87-18-3.34-24.34C73.14,39,81,33.51,81,33.51s3.26,3.77,17.7,5.1c14.81,1.36,20-6.8,20-6.8s1.25,33.86,4.56,38.31A33.28,33.28,0,0,0,139.6,82.12Z"/><path class="cls-4" d="M141.54,73.23c0,6.6-4.68,15.66-7.83,15.66S128,83.55,128,77A14.15,14.15,0,0,1,133.71,65C136.76,62.62,141.54,65,141.54,73.23Z"/><path class="cls-4" d="M59.87,73.23c0,6.6,4.68,15.66,7.83,15.66S73.4,83.55,73.4,77A14.15,14.15,0,0,0,67.7,65C64.65,62.62,59.87,65,59.87,73.23Z"/><path class="cls-4" d="M100.84,21C78.69,21,68.89,36.48,68.89,59.63v29c0,4.24,1.56,15.21,3.19,18.58C77.32,118,92.86,130,100.22,130s24.84-11.87,29-22.16c1.6-4,3.59-16.12,3.59-21.09V59.63C132.79,36.48,123,21,100.84,21Z"/><path d="M132.79,76.16l2-12C136.18,36.8,123,16.61,100.84,16.61S66.64,39.72,67.49,64.13l1.4,12s.06-9,4.51-13.8c2-2.16,0-8.82,2.07-13.8,2.53-6.05,9-10.35,9-10.35s2.7,2.95,14.59,4c12.21,1.06,16.46-5.31,16.46-5.31s7.27.55,11.27,9.89c2.59,6,.6,8.82.4,12.6S132.79,76.16,132.79,76.16Z"/></svg>